<svg xmlns="http://www.w3.org/2000/svg" width="604" height="661" viewBox="0 0 604 661" fill="none">
	<rect x="16.3547" y="257.215" width="275.4" height="459" rx="8" transform="rotate(-30 16.3547 257.215)" fill="#ffe0b2" />
	<path d="M20.3547 264.143C18.1456 260.317 19.4566 255.424 23.2829 253.215L247.584 123.715C251.41 121.506 256.303 122.817 258.512 126.643L269.012 144.829L30.8547 282.329L20.3547 264.143Z" fill="#ffb74d" />
	<g filter="url(#filter0_f)">
		<path d="M375.229 538.374C374.309 536.78 372.85 536.717 371.029 537.307L370.424 537.508L368.376 533.961C369.713 533.3 370.75 533.625 371.302 534.452L372.272 533.892C371.448 532.465 369.763 532.107 367.872 533.088L367.216 531.952L366.704 532.248L367.352 533.37C365.487 534.557 365.068 536.167 365.908 537.621C366.692 538.979 368.045 539.307 369.894 538.701L370.344 538.552L372.592 542.446C371.031 543.199 369.884 542.716 369.207 541.703L368.237 542.263C369.157 543.856 370.925 544.424 373.096 543.319L373.744 544.441L374.256 544.145L373.616 543.037C375.607 541.813 376.221 540.092 375.229 538.374ZM369.693 537.746C368.28 538.21 367.407 537.883 366.919 537.037C366.423 536.178 366.546 535.11 367.856 534.243L369.848 537.693L369.693 537.746ZM373.112 542.164L370.92 538.367L371.243 538.255C372.488 537.85 373.569 537.835 374.233 538.986C374.857 540.066 374.563 541.252 373.112 542.164ZM382.722 537.595L383.705 537.027L382.193 534.408L383.302 533.768L382.838 532.965L381.729 533.605L378.105 527.328L377.122 527.896L376.201 536.797L376.665 537.6L381.21 534.976L382.722 537.595ZM377.115 536.269L377.85 529.157L380.746 534.173L377.115 536.269ZM386.345 522.57L388.489 526.284C387.443 525.687 386.167 525.814 385.1 526.43C383.424 527.398 382.508 529.46 384.004 532.051C385.492 534.628 387.744 534.88 389.42 533.912C390.487 533.296 391.235 532.255 391.241 531.05L391.945 532.27L392.929 531.702L387.329 522.002L386.345 522.57ZM389.107 532.985C387.832 533.721 386.09 533.489 384.946 531.507C383.802 529.526 384.472 527.901 385.747 527.165C387.008 526.437 388.777 526.654 389.921 528.635C391.065 530.617 390.368 532.257 389.107 532.985ZM397.442 529.281C398.897 528.441 400.004 527.063 399.092 525.483C398.388 524.264 397.309 524.314 395.949 524.711L394.429 525.182C393.387 525.489 392.803 525.309 392.483 524.754C392.051 524.006 392.462 523.214 393.529 522.598C394.513 522.03 395.411 521.955 396.159 522.835L396.991 522.355C396.07 520.984 394.591 520.95 393.067 521.83C391.487 522.742 390.828 524.065 391.556 525.326C392.116 526.296 393.092 526.546 394.529 526.123L396.071 525.657C397.008 525.393 397.671 525.325 398.103 526.073C398.655 527.029 398.006 527.921 397.008 528.497C396.052 529.049 394.882 529.263 394.16 528.331L393.259 528.851C394.19 530.272 395.849 530.201 397.442 529.281ZM400.296 517.657C398.523 518.681 397.845 519.94 398.677 521.381L398.805 521.603L399.748 521.059L399.66 520.906C399.108 519.95 399.461 519.155 400.695 518.443C401.9 517.747 402.813 517.792 403.541 519.053L403.765 519.441C403.885 519.649 403.641 519.993 402.943 520.544L401.483 521.664C400.017 522.806 399.53 523.882 400.226 525.087C400.986 526.404 402.316 526.467 403.702 525.667C405.475 524.643 405.695 523.168 405.659 522.689L405.701 522.665L406.421 523.913L407.349 523.377L404.525 518.485C403.525 516.753 402.181 516.569 400.296 517.657ZM404.909 521.423C405.229 521.977 405.199 523.749 403.426 524.773C402.553 525.277 401.682 525.337 401.178 524.464C400.81 523.826 400.914 523.175 402.099 522.251L403.434 521.203C404.037 520.744 404.289 520.413 404.221 520.231L404.909 521.423ZM412.407 520.641C414.5 519.433 415.233 517.439 414.241 515.721C413.353 514.183 411.788 514.033 410.609 514.455C411.487 513.542 411.597 512.389 411.013 511.377C410.221 510.005 408.581 509.566 406.697 510.654C404.826 511.734 404.191 513.45 405.383 515.514L406.325 514.97C405.397 513.363 405.973 512.217 407.165 511.529C408.398 510.817 409.515 511.023 410.107 512.048C410.587 512.879 410.606 514.032 408.929 515L408.583 515.2L409.031 515.976L409.432 515.744C411.081 514.792 412.483 514.981 413.211 516.241C413.979 517.572 413.325 518.966 411.953 519.758C410.429 520.638 408.98 520.273 408.126 518.826L407.184 519.37C408.294 521.261 410.204 521.913 412.407 520.641ZM417.195 517.692L423.499 514.052L423.011 513.207L417.815 516.207L417.759 516.11C417.079 514.932 417.551 513.606 418.54 511.798C419.491 510.085 420.262 508.605 419.318 506.97C418.414 505.404 416.622 504.924 414.723 506.02C412.77 507.148 412.337 509.023 413.337 510.755L413.481 511.005L414.451 510.445L414.339 510.251C413.515 508.824 413.992 507.569 415.211 506.865C416.431 506.161 417.678 506.402 418.358 507.58C419.094 508.854 418.385 510.058 417.45 511.799C416.165 514.148 415.995 515.614 416.979 517.318L417.195 517.692ZM429.472 510.604L430.456 510.036L428.944 507.417L430.052 506.777L429.588 505.973L428.48 506.613L424.856 500.336L423.872 500.904L422.951 509.805L423.415 510.609L427.96 507.985L429.472 510.604ZM423.865 509.277L424.6 502.165L427.496 507.181L423.865 509.277ZM430.621 496.86C428.722 497.956 428.067 500.053 429.267 502.131C430.443 504.168 432.469 504.606 434.256 503.574C435.434 502.894 436.164 501.789 436.07 500.476C437.265 502.576 437.904 504.867 435.839 506.059C434.578 506.787 433.454 506.439 432.866 505.614L431.993 506.118C432.709 507.294 434.35 507.991 436.289 506.871C439.075 505.263 438.343 502.268 436.871 499.718C434.959 496.406 432.741 495.636 430.621 496.86ZM433.967 502.688C432.526 503.52 431.073 503.084 430.217 501.601C429.353 500.105 429.651 498.51 431.093 497.678C432.52 496.854 434.072 497.399 434.928 498.881C435.784 500.364 435.408 501.856 433.967 502.688ZM445.082 501.776C447.202 500.552 447.819 497.942 445.915 494.644C444.027 491.374 441.45 490.59 439.33 491.814C437.21 493.038 436.586 495.67 438.474 498.94C440.378 502.238 442.962 503 445.082 501.776ZM444.594 500.931C442.875 501.923 440.904 500.973 439.416 498.396C437.936 495.833 438.099 493.651 439.818 492.659C441.536 491.667 443.493 492.625 444.973 495.188C446.461 497.765 446.312 499.939 444.594 500.931Z" fill="#EF6C00" />
	</g>
	<rect x="1.3659" y="254.337" width="273.4" height="457" rx="7" transform="rotate(-30 1.3659 254.337)" stroke="#EF6C00" stroke-width="2" />
	<path d="M61.0412 292.614L262.825 176.114" stroke="#EF6C00" stroke-width="2" />
	<path d="M233.041 590.527L434.825 474.027" stroke="#EF6C00" stroke-width="2" />
	<path d="M248.317 615.194L251.629 613.282C254.677 611.522 255.207 608.888 253.415 605.784C251.623 602.68 249.077 601.822 246.029 603.582L242.717 605.494L248.317 615.194ZM249.03 613.101L244.886 605.923L246.618 604.923C248.918 603.595 250.531 604.179 251.947 606.632C253.355 609.071 253.062 610.773 250.762 612.101L249.03 613.101ZM262.053 602.312C260.597 599.79 258.53 599.506 256.673 600.578C254.816 601.65 253.884 603.684 255.412 606.33C256.916 608.935 259.124 609.176 261.078 608.048C262.547 607.2 263.382 605.831 262.892 603.989L261.645 604.709C261.828 605.73 261.375 606.417 260.488 606.929C259.158 607.697 257.974 607.438 256.981 605.942L262.315 602.862C262.255 602.694 262.197 602.561 262.053 602.312ZM256.405 604.945C255.743 603.479 256.127 602.352 257.291 601.68C258.538 600.96 259.687 601.35 260.451 602.609L256.405 604.945ZM265.248 595.627C264.181 596.243 263.547 597.256 263.573 598.293L262.917 597.157L261.518 597.965L267.198 607.803L268.597 606.995L266.421 603.226C267.307 603.768 268.501 603.725 269.568 603.109C271.176 602.181 272.127 600.117 270.623 597.512C269.111 594.893 266.856 594.699 265.248 595.627ZM268.597 602.099C267.489 602.739 265.944 602.56 264.928 600.8C263.912 599.04 264.529 597.612 265.637 596.972C266.76 596.324 268.277 596.52 269.293 598.28C270.309 600.04 269.72 601.451 268.597 602.099ZM277.489 598.536C279.29 597.496 280.337 595.34 278.849 592.763C277.361 590.185 274.97 590.013 273.169 591.053C271.382 592.085 270.335 594.241 271.823 596.819C273.311 599.396 275.702 599.568 277.489 598.536ZM276.809 597.358C275.645 598.03 274.178 597.824 273.154 596.051C272.13 594.277 272.685 592.903 273.849 592.231C275.013 591.559 276.494 591.757 277.518 593.531C278.542 595.304 277.973 596.686 276.809 597.358ZM285.087 594.149C286.667 593.237 287.756 591.796 286.836 590.202C286.124 588.969 284.979 589.002 283.655 589.397L282.121 589.876C281.29 590.134 280.774 590.007 280.494 589.522C280.142 588.912 280.496 588.246 281.397 587.726C282.256 587.23 283.028 587.191 283.678 587.997L284.856 587.317C283.931 585.875 282.43 585.707 280.753 586.675C279.09 587.635 278.406 589.009 279.166 590.326C279.726 591.295 280.722 591.644 282.264 591.179L283.784 590.708C284.559 590.482 285.088 590.472 285.424 591.054C285.872 591.83 285.372 592.562 284.485 593.074C283.598 593.586 282.644 593.694 282.021 592.871L280.76 593.599C281.698 595.127 283.355 595.149 285.087 594.149ZM285.258 582.596C285.702 582.34 285.881 581.756 285.617 581.298C285.353 580.841 284.758 580.705 284.314 580.961C283.871 581.217 283.691 581.801 283.955 582.258C284.219 582.716 284.815 582.852 285.258 582.596ZM289.445 591.448L290.845 590.64L286.685 583.435L285.285 584.243L289.445 591.448ZM295.148 586.77C294.428 587.186 293.981 587.019 293.573 586.313L291.237 582.266L292.664 581.442L292.032 580.348L290.605 581.172L289.557 579.357L288.157 580.165L289.205 581.98L288.027 582.66L288.659 583.754L289.837 583.074L292.309 587.356C293.125 588.769 294.266 588.794 295.444 588.114C295.749 587.938 296.04 587.77 296.321 587.553L295.689 586.458L295.148 586.77Z" fill="#EF6C00" />
	<rect x="73.0412" y="313.399" width="152" height="20" rx="4" transform="rotate(-30 73.0412 313.399)" fill="#ffcc80" />
	<rect x="94.5412" y="350.638" width="119" height="20" rx="4" transform="rotate(-30 94.5412 350.638)" fill="#ffcc80" />
	<path d="M112.8 356.262C115.926 352.725 114.326 347.298 120.283 343.859C126.744 340.129 130.762 345.314 135.809 342.401C142.269 338.67 140.958 331.922 146.772 328.565C153.233 324.835 157.775 329.718 162.944 326.734C168.113 323.75 169.385 315.509 175.2 312.152C181.015 308.795 185.557 313.678 193.956 308.829" stroke="#EF6C00" stroke-width="2" stroke-linecap="round" />
	<path d="M244.707 33.0174C243.669 32.6218 243.669 30.7951 244.707 30.3959C249.136 28.6911 256.432 25.4244 260.284 21.184C263.842 17.268 266.787 8.85707 268.303 3.89227C268.651 2.75264 270.224 2.73269 270.594 3.86389C272.214 8.82497 275.323 17.2605 278.838 21.184C282.354 25.1082 289.914 28.5789 294.358 30.3867C295.372 30.7989 295.354 32.5553 294.334 32.9446C289.872 34.6463 282.284 37.9655 278.649 42.022C275.074 46.0127 272.138 54.2743 270.592 59.2826C270.234 60.4404 268.604 60.4333 268.254 59.2728C266.743 54.2653 263.863 46.0157 260.284 42.022C256.697 38.018 249.224 34.7384 244.707 33.0174Z" fill="#ffcc80" />
	<rect x="329" y="15" width="274" height="459" rx="13.77" fill="transparent" />
	<rect x="329" y="17" width="273.4" height="457" rx="7" stroke="#EF6C00" stroke-width="2" />
	<path d="M288.023 113.697C287.98 113.679 287.866 113.587 287.866 113.312C287.866 113.037 287.98 112.941 288.025 112.922C290.678 111.801 294.288 109.989 296.41 107.654C297.436 106.525 298.342 104.903 299.105 103.241C299.875 101.563 300.531 99.7697 301.038 98.2415C301.056 98.1857 301.133 98.0739 301.346 98.0712C301.558 98.0686 301.635 98.1781 301.654 98.2316C302.19 99.7596 302.878 101.555 303.67 103.235C304.454 104.9 305.371 106.521 306.381 107.649C307.392 108.777 308.845 109.801 310.337 110.676C311.843 111.56 313.452 112.328 314.821 112.927C314.869 112.948 314.967 113.034 314.965 113.271C314.963 113.508 314.862 113.595 314.813 113.616C313.436 114.185 311.817 114.926 310.294 115.797C308.785 116.661 307.309 117.689 306.266 118.853C305.251 119.986 304.353 121.576 303.593 123.21C302.826 124.859 302.171 126.618 301.659 128.14C301.642 128.189 301.56 128.314 301.319 128.313C301.079 128.312 300.996 128.186 300.98 128.136C300.478 126.616 299.833 124.858 299.075 123.21C298.324 121.577 297.431 119.987 296.414 118.853C295.394 117.714 293.957 116.707 292.479 115.857C290.989 115 289.397 114.268 288.023 113.697Z" stroke="#EF6C00" stroke-width="2" />
	<path d="M188.023 82.6967C187.98 82.6788 187.866 82.5866 187.866 82.3118C187.866 82.0369 187.98 81.9411 188.025 81.922C190.678 80.8005 194.288 78.9891 196.41 76.654C197.436 75.5247 198.342 73.9029 199.105 72.2407C199.875 70.5628 200.531 68.7697 201.037 67.2415C201.056 67.1857 201.133 67.0739 201.346 67.0712C201.558 67.0686 201.635 67.1781 201.654 67.2316C202.19 68.7596 202.878 70.5551 203.67 72.2353C204.454 73.8997 205.371 75.5214 206.381 76.6488C207.392 77.7766 208.845 78.8007 210.337 79.676C211.843 80.5596 213.452 81.3283 214.821 81.9266C214.869 81.9476 214.967 82.0338 214.965 82.271C214.963 82.5084 214.862 82.595 214.812 82.6156C213.436 83.1853 211.817 83.9257 210.294 84.7973C208.785 85.6615 207.309 86.6888 206.266 87.8525C205.251 88.9856 204.353 90.5756 203.593 92.2104C202.826 93.8587 202.171 95.6184 201.659 97.1396C201.642 97.1891 201.56 97.3136 201.319 97.3126C201.079 97.3116 200.996 97.1863 200.98 97.136C200.478 95.6155 199.833 93.8576 199.075 92.2105C198.324 90.5769 197.431 88.9871 196.414 87.8525C195.394 86.7137 193.957 85.7074 192.479 84.8572C190.989 83.9999 189.397 83.2677 188.023 82.6967Z" stroke="#EF6C00" stroke-width="2" />
	<path d="M236.012 32.0206C235.974 32.006 235.948 31.9835 235.925 31.9413C235.896 31.8906 235.872 31.8089 235.872 31.7081C235.872 31.6073 235.897 31.5248 235.925 31.4732C235.949 31.4298 235.976 31.4065 236.014 31.3917C238.25 30.5311 241.22 29.2724 244.126 27.6871C247.018 26.1094 249.913 24.173 251.947 21.934C253.847 19.8429 255.529 16.6242 256.911 13.3842C258.303 10.1209 259.432 6.73526 260.196 4.23205C260.21 4.18711 260.231 4.15931 260.264 4.13515C260.305 4.10603 260.37 4.08077 260.451 4.07976C260.531 4.07876 260.597 4.10238 260.638 4.13024C260.672 4.15328 260.693 4.18018 260.707 4.22458C261.523 6.72426 262.719 10.1119 264.158 13.3781C265.588 16.6213 267.299 19.8401 269.171 21.9288C271.042 24.0179 273.927 25.9283 276.833 27.5242C279.76 29.1313 282.796 30.4655 285.035 31.3764C285.075 31.3925 285.099 31.4159 285.12 31.4538C285.145 31.4996 285.166 31.5728 285.165 31.6627C285.164 31.7527 285.141 31.8257 285.115 31.8714C285.094 31.9094 285.069 31.9325 285.028 31.9479C282.779 32.806 279.729 34.0761 276.775 35.6497C273.84 37.213 270.916 39.1189 268.982 41.2772C267.079 43.401 265.396 46.5944 264.009 49.8143C262.613 53.0549 261.479 56.4141 260.7 58.9395L261.592 59.2827L260.7 58.9396C260.686 58.983 260.666 59.0113 260.629 59.0369C260.584 59.0677 260.512 59.0942 260.424 59.0938C260.335 59.0934 260.263 59.0664 260.219 59.0351C260.181 59.009 260.161 58.9804 260.148 58.9367C259.386 56.4112 258.275 53.0544 256.897 49.8154C255.528 46.5973 253.857 43.4042 251.952 41.2772C250.042 39.1455 247.159 37.2626 244.251 35.7131C241.325 34.1534 238.29 32.8884 236.012 32.0206Z" stroke="#EF6C00" stroke-width="2" />
	<path d="M344.655 82.3419C344.61 82.3214 344.479 82.204 344.478 81.8803C344.478 81.5565 344.609 81.4341 344.657 81.4119C346.336 80.6258 348.323 79.5041 349.602 78.097C350.839 76.7354 351.851 74.3863 352.547 72.4644C352.568 72.4066 352.665 72.2774 352.913 72.2745C353.162 72.2715 353.257 72.3978 353.278 72.4524C354.009 74.3791 355.055 76.7324 356.273 78.0919C357.492 79.4519 359.602 80.6196 361.328 81.4363C361.377 81.4594 361.49 81.5659 361.488 81.8437C361.485 82.1217 361.37 82.2295 361.318 82.2529C359.578 83.0396 357.45 84.1846 356.192 85.5888C354.984 86.9373 353.992 89.1773 353.294 91.0608C353.275 91.1125 353.171 91.256 352.888 91.2549C352.605 91.2538 352.5 91.1093 352.481 91.0567C351.795 89.1757 350.816 86.9388 349.606 85.5888C348.39 84.2316 346.359 83.1211 344.655 82.3419Z" fill="#EF6C00" stroke="#EF6C00" stroke-width="2" />
	<path d="M350.232 46.3054C350.165 46.2747 350.104 46.1793 350.104 46.0329C350.104 45.8864 350.164 45.7895 350.232 45.7578C350.889 45.4526 351.669 45.0141 352.157 44.4697C352.624 43.948 353.014 43.0183 353.281 42.2569C353.308 42.1795 353.388 42.1156 353.505 42.1141C353.622 42.1127 353.702 42.1745 353.73 42.2508C354.011 43.014 354.415 43.9466 354.876 44.4683C355.337 44.9903 356.162 45.4469 356.837 45.7653C356.904 45.7971 356.959 45.8876 356.958 46.0202C356.956 46.1529 356.9 46.2432 356.832 46.274C356.153 46.5798 355.321 47.0265 354.845 47.5655C354.386 48.0846 354.004 48.9752 353.735 49.7236C353.708 49.8004 353.624 49.8674 353.496 49.8669C353.369 49.8664 353.285 49.7987 353.258 49.7215C352.994 48.974 352.617 48.085 352.158 47.5655C351.696 47.0432 350.9 46.609 350.232 46.3054Z" fill="#EF6C00" stroke="white" stroke-width="0.5" />
	<path d="M348.489 37.1023L348.488 37.1036C347.969 37.8396 347.585 38.7267 347.33 39.7595C347.076 40.7663 346.949 41.8841 346.949 43.1112V48.5587C346.949 51.1838 347.452 53.2586 348.487 54.7537L348.487 54.7537L348.489 54.7578C349.564 56.246 351.164 56.9799 353.245 56.9799C355.326 56.9799 356.914 56.2461 357.964 54.7558C359.025 53.2603 359.54 51.1846 359.54 48.5587V43.1112C359.54 41.8841 359.414 40.7663 359.16 39.7594C358.905 38.7265 358.508 37.839 357.964 37.1029C357.445 36.3405 356.781 35.7467 355.974 35.3246C355.186 34.8987 354.274 34.69 353.245 34.69C352.192 34.69 351.266 34.8985 350.476 35.3254C349.695 35.748 349.032 36.3418 348.489 37.1023ZM344.315 42.8842C344.315 39.4914 345.115 36.8963 346.68 35.0646C348.242 33.2378 350.419 32.3149 353.245 32.3149C356.071 32.3149 358.247 33.2378 359.809 35.0646C361.375 36.8963 362.175 39.4914 362.175 42.8842V48.7857C362.175 52.2821 361.374 54.8995 359.811 56.6784C358.25 58.4557 356.073 59.3549 353.245 59.3549C350.417 59.3549 348.239 58.4557 346.678 56.6784C345.116 54.8995 344.315 52.2821 344.315 48.7857V42.8842Z" fill="#EF6C00" stroke="white" stroke-width="0.5" />
	<path d="M570.139 408.806C570.094 408.785 569.962 408.668 569.962 408.344C569.961 408.02 570.093 407.898 570.141 407.876C571.82 407.09 573.807 405.968 575.086 404.561C576.323 403.199 577.335 400.85 578.031 398.928C578.052 398.87 578.148 398.741 578.397 398.738C578.646 398.735 578.741 398.862 578.762 398.916C579.493 400.843 580.539 403.196 581.757 404.556C582.975 405.916 585.085 407.083 586.812 407.9C586.861 407.923 586.974 408.03 586.972 408.307C586.969 408.585 586.853 408.693 586.802 408.717C585.062 409.503 582.934 410.648 581.676 412.053C580.467 413.401 579.476 415.641 578.778 417.525C578.759 417.576 578.655 417.72 578.372 417.719C578.089 417.718 577.984 417.573 577.965 417.52C577.279 415.639 576.3 413.403 575.09 412.053C573.874 410.695 571.843 409.585 570.139 408.806Z" fill="#EF6C00" stroke="#EF6C00" stroke-width="2" />
	<path d="M575.142 445.444C575.075 445.413 575.014 445.318 575.014 445.172C575.014 445.025 575.074 444.928 575.142 444.897C575.799 444.591 576.579 444.153 577.067 443.608C577.534 443.087 577.924 442.157 578.191 441.396C578.218 441.318 578.298 441.254 578.415 441.253C578.532 441.252 578.612 441.313 578.64 441.39C578.922 442.153 579.325 443.085 579.786 443.607C580.247 444.129 581.072 444.586 581.747 444.904C581.814 444.936 581.869 445.026 581.868 445.159C581.867 445.292 581.81 445.382 581.742 445.413C581.063 445.719 580.232 446.165 579.755 446.704C579.296 447.223 578.914 448.114 578.646 448.862C578.618 448.939 578.534 449.006 578.407 449.006C578.279 449.005 578.195 448.938 578.168 448.86C577.905 448.113 577.527 447.224 577.068 446.704C576.606 446.182 575.81 445.748 575.142 445.444Z" fill="#EF6C00" stroke="white" stroke-width="0.5" />
	<path d="M573.399 436.241L573.398 436.242C572.879 436.978 572.495 437.866 572.24 438.898C571.986 439.905 571.86 441.023 571.86 442.25V447.698C571.86 450.323 572.362 452.397 573.397 453.893L573.397 453.893L573.4 453.897C574.474 455.385 576.074 456.119 578.155 456.119C580.236 456.119 581.824 455.385 582.874 453.895C583.935 452.399 584.45 450.323 584.45 447.698V442.25C584.45 441.023 584.324 439.905 584.07 438.898C583.815 437.865 583.418 436.978 582.874 436.242C582.355 435.479 581.691 434.886 580.885 434.463C580.096 434.038 579.184 433.829 578.155 433.829C577.102 433.829 576.176 434.037 575.387 434.464C574.605 434.887 573.942 435.481 573.399 436.241ZM569.225 442.023C569.225 438.63 570.025 436.035 571.591 434.203C573.152 432.377 575.329 431.454 578.155 431.454C580.981 431.454 583.158 432.377 584.719 434.203C586.285 436.035 587.085 438.63 587.085 442.023V447.925C587.085 451.421 586.284 454.038 584.722 455.817C583.16 457.595 580.983 458.494 578.155 458.494C575.327 458.494 573.149 457.595 571.588 455.817C570.026 454.038 569.225 451.421 569.225 447.925V442.023Z" fill="#EF6C00" stroke="white" stroke-width="0.5" />
	<path d="M470.728 158.666H500.055L529.382 187.993L529.125 239.702H500.055V187.993L470.728 158.666ZM470.728 158.666H462.753L450.405 163.811L443.974 158.409H435.227L413.875 187.222V239.959M497.225 162.268L523.98 187.993V234.814H505.458V187.993L479.989 162.268H497.225Z" stroke="#EF6C00" stroke-width="2" />
	<path d="M413.103 239.445H437.799L490.022 178.218L477.931 165.869L422.879 230.183" stroke="#EF6C00" stroke-width="2" />
	<path d="M378.396 140.579C377.94 140.07 377.286 139.648 376.668 139.321C377.277 138.99 377.919 138.564 378.392 138.044C378.847 137.543 379.225 136.811 379.518 136.12C379.82 136.811 380.203 137.541 380.649 138.039C381.096 138.538 381.751 138.966 382.37 139.303C381.742 139.634 381.075 140.063 380.613 140.579C380.165 141.078 379.793 141.789 379.502 142.465C379.214 141.79 378.845 141.079 378.396 140.579Z" stroke="#EF6C00" stroke-width="2" />
	<path d="M409.781 119.484C409.325 118.975 408.671 118.553 408.053 118.226C408.662 117.895 409.305 117.469 409.777 116.949C410.232 116.448 410.61 115.716 410.903 115.025C411.205 115.716 411.588 116.446 412.034 116.944C412.481 117.443 413.136 117.871 413.755 118.208C413.127 118.539 412.46 118.968 411.998 119.484C411.55 119.983 411.178 120.694 410.887 121.37C410.6 120.695 410.23 119.984 409.781 119.484Z" stroke="#EF6C00" stroke-width="2" />
	<path d="M388.783 117.452C388.515 117.153 388.172 116.9 387.834 116.692C388.168 116.481 388.505 116.227 388.779 115.925C389.047 115.63 389.274 115.248 389.46 114.87C389.65 115.247 389.877 115.627 390.139 115.92C390.402 116.213 390.742 116.467 391.081 116.679C390.734 116.89 390.385 117.148 390.112 117.452C389.851 117.743 389.63 118.112 389.447 118.478C389.265 118.112 389.044 117.744 388.783 117.452Z" stroke="#EF6C00" stroke-width="2" />
	<path d="M456.6 120.078H464.318L466.376 121.879" stroke="#EF6C00" stroke-width="2" />
	<path d="M443.737 120.078H451.969" stroke="#EF6C00" stroke-width="2" />
	<path d="M456.6 136.799H451.198L454.028 130.625" stroke="#EF6C00" stroke-width="2" />
	<path d="M450 144C450 144 451.721 146 454.454 146C457.187 146 459 144 459 144" stroke="#EF6C00" stroke-width="2" />
	<path d="M439.621 136.542L445.538 140.401C445.538 140.401 445.538 144.26 445.538 145.803C445.538 147.347 447.339 148.119 453.256 153.007" stroke="#EF6C00" stroke-width="2" />
	<path d="M472.807 133.455L468.177 137.057M468.177 137.057V145.803C468.177 149.405 467.442 151.704 459.944 155.065C452.484 158.409 447.853 160.467 446.824 160.982M468.177 137.057L463.546 140.401V146.061C463.546 147.347 463.237 148.736 457.886 151.206C452.535 153.675 449.911 154.893 448.625 155.579C447.339 156.265 443.737 158.152 443.737 158.152" stroke="#EF6C00" stroke-width="2" />
	<path d="M439.878 148.376L448.625 155.322" stroke="#EF6C00" stroke-width="2" />
	<path d="M472.55 145.289C472.55 152.698 469.72 155.322 462.517 158.666L450.426 163.811L439.621 154.807V126.509V114.933H463.803L472.55 123.679V126.509V130.625C472.55 132.426 472.55 137.88 472.55 145.289ZM472.55 145.289V153.264C472.464 154.979 473.322 158.666 477.438 158.666C480.674 158.666 485.023 158.666 487.985 158.666M469.206 114.933L477.438 123.679V153.264C477.438 156.608 479.444 158.666 485.413 158.666C486.453 158.666 487.301 158.666 487.985 158.666M490.043 158.666C487.557 158.666 482.583 158.203 482.583 153.264C482.583 148.325 482.583 131.226 482.583 123.679L474.351 114.933M490.043 158.666C489.493 158.666 488.791 158.666 487.985 158.666M490.043 158.666C490.822 158.666 491.227 158.666 487.985 158.666M480.01 114.933L487.985 123.679V153.264C488.071 155.065 488.5 158.666 495.703 158.666C496.346 158.666 494.074 158.666 487.985 158.666" stroke="#EF6C00" stroke-width="2" />
	<path d="M434.733 114.675L434.733 153.007C434.733 156.094 428.816 158.409 426.758 158.409C424.7 158.409 434.733 158.409 434.733 158.409C436.791 158.409 439.621 156.299 439.621 153.007" stroke="#EF6C00" stroke-width="2" />
	<path d="M434.733 109.016L427.53 114.675H492.873L486.699 109.016M434.733 109.016H486.699M434.733 109.016V101.041L475.894 73C476.838 73.4288 481.039 75.3668 490.301 79.6887C499.562 84.0106 500.505 92.2942 499.819 95.8958L486.699 88.9499L478.724 101.041L486.699 109.016" stroke="#EF6C00" stroke-width="2" />
	<path d="M444.252 126.252C444.252 124.263 445.979 122.65 448.111 122.65C450.242 122.65 451.969 124.263 451.969 126.252" stroke="#EF6C00" stroke-width="2" />
	<path d="M457.115 126.252C457.115 124.263 458.842 122.65 460.973 122.65C463.105 122.65 464.832 124.263 464.832 126.252" stroke="#EF6C00" stroke-width="2" />
	<path d="M394.58 239.702V161.689V147.09L397.41 147.09L400.24 147.09V239.702H394.58Z" stroke="#EF6C00" stroke-width="2" />
	<path d="M386.863 131.14L397.41 120.335M386.863 131.14L391.751 146.832M386.863 131.14L393.037 135.77M397.41 132.169L393.037 135.77M397.41 132.169L401.784 135.77M397.41 132.169V120.335M393.037 135.77L395.609 142.974M395.609 142.974H397.41M395.609 142.974L391.751 146.832M399.211 142.974L401.784 135.77M399.211 142.974H397.41M399.211 142.974L402.813 146.832M401.784 135.77L407.958 131.14M397.41 120.335L407.958 131.14M407.958 131.14L402.813 146.832M402.813 146.832H397.41M397.41 146.832H391.751M397.41 146.832V142.974" stroke="#EF6C00" stroke-width="2" />
	<path d="M400.497 159.181L408.729 155.836L410.016 147.604C409.673 148.376 408.575 150.228 406.929 151.463C405.282 152.698 401.955 154.036 400.497 154.55" stroke="#EF6C00" stroke-width="2" />
	<path d="M394.323 159.181L386.091 155.836L384.805 147.604C385.148 148.376 386.245 150.228 387.892 151.463C389.538 152.698 392.865 154.036 394.323 154.55" stroke="#EF6C00" stroke-width="2" />
	<path d="M400.24 154.807L397.41 157.38L394.58 154.807" stroke="#EF6C00" stroke-width="2" />
	<path d="M400.24 159.438L397.41 162.011L394.58 159.438" stroke="#EF6C00" stroke-width="2" />
	<path d="M400.24 154.807L397.41 157.38L394.58 154.807" stroke="#EF6C00" stroke-width="2" />
	<path d="M400.24 159.438L397.41 162.011L394.58 159.438" stroke="#EF6C00" stroke-width="2" />
	<path d="M400.24 150.177L397.41 152.749L394.58 150.177" stroke="#EF6C00" stroke-width="2" />
	<rect x="387.377" y="190.309" width="22.124" height="19.5515" fill="white" />
	<path d="M395.609 198.541H389.056C386.863 198.541 386.863 202.657 389.056 202.657M409.244 192.881L405.9 189.794H391.493C391.493 191.252 391.973 194.168 393.89 194.168H400.839C400.839 197.512 402.822 198.541 404.356 198.541M409.244 192.881V206.773M409.244 192.881C409.244 192.281 410.53 191.338 411.559 191.338C412.588 191.338 413.875 192.367 413.875 192.881V206.773C413.875 207.288 412.588 208.317 411.559 208.317C410.53 208.317 409.244 207.288 409.244 206.773M394.58 194.168H388.921C386.863 194.168 386.863 198.541 388.921 198.541M409.244 206.773L405.868 210.375H387.439C387.439 209.088 387.383 206.773 389.424 206.773H395.609M395.609 202.657H388.987C386.65 202.657 387.04 206.773 388.987 206.773" stroke="#EF6C00" stroke-width="2" />
	<path d="M474.844 177.446V183.62" stroke="#EF6C00" stroke-width="2" />
	<path d="M471.757 180.533H477.931" stroke="#EF6C00" stroke-width="2" />
	<path d="M458.38 196.997V203.172" stroke="#EF6C00" stroke-width="2" />
	<path d="M455.293 200.084H461.467" stroke="#EF6C00" stroke-width="2" />
	<path d="M440.372 217.063V223.237" stroke="#EF6C00" stroke-width="2" />
	<path d="M437.285 220.15H443.459" stroke="#EF6C00" stroke-width="2" />
	<circle cx="466.355" cy="190.051" r="2.34433" stroke="#EF6C00" stroke-width="2" />
	<circle cx="449.376" cy="211.146" r="2.34433" stroke="#EF6C00" stroke-width="2" />
	<circle cx="431.368" cy="231.212" r="2.34433" stroke="#EF6C00" stroke-width="2" />
	<path d="M414.103 195.425H418.02V204.23H414.103V195.425Z" stroke="#EF6C00" stroke-width="2" />
	<path d="M418.248 239.187V187.479L439.343 158.409" stroke="#EF6C00" stroke-width="2" />
	<path d="M422.879 239.187V187.479L443.974 158.409" stroke="#EF6C00" stroke-width="2" />
	<circle cx="451.177" cy="167.156" r="3.1161" stroke="#EF6C00" stroke-width="2" />
	<path d="M447.832 166.641H437.799" stroke="#EF6C00" stroke-width="2" />
	<path d="M454.5 166.5L471.757 159.695" stroke="#EF6C00" stroke-width="2" />
	<path d="M454.006 166.641H477.16" stroke="#EF6C00" stroke-width="2" />
	<path d="M447.575 166.127L441.401 162.525" stroke="#EF6C00" stroke-width="2" />
	<path d="M487.964 175.902L433.169 239.702" stroke="#EF6C00" stroke-width="2" />
	<path d="M445.774 229.926H477.16M435.741 239.445L500.055 239.702V229.926H497.226" stroke="#EF6C00" stroke-width="2" />
	<path d="M434.97 215.895C434.97 205.154 430.575 194.17 422.879 187.846" stroke="#EF6C00" stroke-width="2" />
	<path d="M438.828 212.035C438.828 201.294 433.147 190.567 425.451 184.243" stroke="#EF6C00" stroke-width="2" />
	<path d="M500.055 189.39C494.084 194.296 490.101 202.007 488.615 210.234" stroke="#EF6C00" stroke-width="2" />
	<path d="M497.483 185.787C490.587 191.453 485.309 200.655 484.286 210.234" stroke="#EF6C00" stroke-width="2" />
	<path d="M519.38 223.691C519.319 223.504 519.158 223.368 518.964 223.34L516.279 222.952L515.079 220.532C514.905 220.182 514.331 220.182 514.157 220.532L512.957 222.952L510.272 223.34C510.078 223.368 509.916 223.504 509.856 223.691C509.796 223.878 509.847 224.083 509.987 224.219L511.929 226.102L511.471 228.759C511.437 228.952 511.516 229.147 511.675 229.263C511.833 229.378 512.043 229.393 512.216 229.303L514.618 228.046L517.02 229.303C517.095 229.342 517.177 229.362 517.258 229.362C517.365 229.362 517.472 229.328 517.561 229.263C517.72 229.147 517.799 228.952 517.765 228.759L517.307 226.102L519.249 224.219C519.389 224.083 519.44 223.878 519.38 223.691ZM516.396 225.552C516.274 225.67 516.218 225.841 516.247 226.009L516.574 227.908L514.856 227.009C514.782 226.97 514.7 226.951 514.618 226.951C514.536 226.951 514.454 226.97 514.38 227.009L512.661 227.908L512.989 226.009C513.018 225.841 512.962 225.67 512.84 225.552L511.455 224.209L513.371 223.932C513.539 223.908 513.683 223.803 513.759 223.651L514.618 221.919L515.477 223.651C515.552 223.803 515.697 223.908 515.864 223.932L517.78 224.209L516.396 225.552Z" fill="#EF6C00" stroke="#EF6C00" stroke-width="0.75" />
	<path d="M491.596 228.838C491.536 228.651 491.374 228.515 491.18 228.487L488.495 228.099L487.295 225.679C487.121 225.329 486.547 225.329 486.373 225.679L485.173 228.099L482.488 228.487C482.294 228.515 482.133 228.651 482.072 228.838C482.012 229.024 482.063 229.229 482.204 229.366L484.145 231.248L483.687 233.906C483.653 234.099 483.733 234.294 483.891 234.41C484.049 234.525 484.26 234.54 484.432 234.45L486.834 233.193L489.236 234.45C489.311 234.489 489.393 234.508 489.475 234.508C489.581 234.508 489.688 234.475 489.778 234.41C489.936 234.294 490.015 234.099 489.982 233.906L489.524 231.248L491.465 229.366C491.606 229.229 491.657 229.024 491.596 228.838ZM488.612 230.699C488.49 230.817 488.435 230.988 488.463 231.155L488.791 233.055L487.073 232.156C486.998 232.117 486.916 232.098 486.834 232.098C486.752 232.098 486.67 232.117 486.596 232.156L484.878 233.055L485.205 231.155C485.234 230.988 485.178 230.817 485.056 230.699L483.672 229.356L485.588 229.079C485.755 229.055 485.9 228.95 485.975 228.798L486.834 227.066L487.693 228.798C487.769 228.95 487.914 229.055 488.081 229.079L489.997 229.356L488.612 230.699Z" fill="#EF6C00" stroke="#EF6C00" stroke-width="0.75" />
	<path d="M519.38 207.736C519.319 207.55 519.158 207.414 518.964 207.386L516.279 206.997L515.079 204.578C514.905 204.227 514.331 204.227 514.157 204.578L512.957 206.997L510.272 207.386C510.078 207.414 509.916 207.55 509.856 207.736C509.796 207.923 509.847 208.128 509.987 208.264L511.929 210.147L511.471 212.805C511.437 212.998 511.516 213.193 511.675 213.308C511.833 213.423 512.043 213.439 512.216 213.348L514.618 212.092L517.02 213.348C517.095 213.388 517.177 213.407 517.258 213.407C517.365 213.407 517.472 213.373 517.561 213.308C517.72 213.193 517.799 212.998 517.765 212.805L517.307 210.147L519.249 208.264C519.389 208.128 519.44 207.923 519.38 207.736ZM516.396 209.597C516.274 209.716 516.218 209.886 516.247 210.054L516.574 211.954L514.856 211.055C514.782 211.016 514.7 210.996 514.618 210.996C514.536 210.996 514.454 211.016 514.38 211.055L512.661 211.954L512.989 210.054C513.018 209.886 512.962 209.716 512.84 209.597L511.455 208.254L513.371 207.977C513.539 207.953 513.683 207.848 513.759 207.697L514.618 205.964L515.477 207.697C515.552 207.848 515.697 207.953 515.864 207.977L517.78 208.254L516.396 209.597Z" fill="#EF6C00" stroke="#EF6C00" stroke-width="0.75" />
	<path d="M519.38 191.782C519.319 191.595 519.158 191.459 518.964 191.431L516.279 191.043L515.079 188.623C514.905 188.273 514.331 188.273 514.157 188.623L512.957 191.043L510.272 191.431C510.078 191.459 509.916 191.595 509.856 191.782C509.796 191.968 509.847 192.173 509.987 192.31L511.929 194.192L511.471 196.85C511.437 197.043 511.516 197.238 511.675 197.354C511.833 197.469 512.043 197.484 512.216 197.394L514.618 196.137L517.02 197.394C517.095 197.433 517.177 197.452 517.258 197.452C517.365 197.452 517.472 197.419 517.561 197.354C517.72 197.238 517.799 197.043 517.765 196.85L517.307 194.192L519.249 192.31C519.389 192.173 519.44 191.968 519.38 191.782ZM516.396 193.643C516.274 193.761 516.218 193.932 516.247 194.099L516.574 195.999L514.856 195.1C514.782 195.061 514.7 195.042 514.618 195.042C514.536 195.042 514.454 195.061 514.38 195.1L512.661 195.999L512.989 194.099C513.018 193.932 512.962 193.761 512.84 193.643L511.455 192.3L513.371 192.023C513.539 191.999 513.683 191.894 513.759 191.742L514.618 190.01L515.477 191.742C515.552 191.894 515.697 191.999 515.864 192.023L517.78 192.3L516.396 193.643Z" fill="#EF6C00" stroke="#EF6C00" stroke-width="0.75" />
	<path d="M494.312 237.409C496.402 234.61 497.265 231.722 496.878 228.823C496.557 226.417 495.338 223.981 493.353 221.778C492.431 220.755 491.554 220.009 491.006 219.58C491.388 219.274 491.642 218.744 491.642 218.141C491.642 217.535 491.386 217.005 491.002 216.699C491.704 215.945 493.026 214.164 493.026 211.464C493.026 211.258 492.891 211.091 492.724 211.091H490.155C490.159 210.827 490.154 210.562 490.124 210.298C490.103 210.113 489.975 209.976 489.824 209.976H483.532C483.381 209.976 483.254 210.113 483.233 210.298C483.203 210.562 483.197 210.827 483.201 211.091H480.632C480.465 211.091 480.33 211.258 480.33 211.464C480.33 214.164 481.653 215.945 482.354 216.699C481.97 217.005 481.714 217.535 481.714 218.141C481.714 218.744 481.968 219.274 482.35 219.58C481.802 220.009 480.925 220.755 480.003 221.778C478.018 223.981 476.799 226.417 476.478 228.823C476.091 231.722 476.954 234.61 479.044 237.409C479.996 238.683 481.024 239.827 483.127 239.827H490.23C492.332 239.827 493.36 238.683 494.312 237.409ZM490.104 211.837H492.412C492.27 214.508 490.637 216.129 490.307 216.43C490.289 216.429 490.271 216.423 490.252 216.423H488.396C488.945 215.522 489.874 213.754 490.104 211.837ZM483.805 210.723H489.551C489.673 213.21 488.019 215.836 487.626 216.423H485.73C485.337 215.836 483.684 213.21 483.805 210.723ZM480.944 211.837H483.252C483.483 213.754 484.411 215.522 484.96 216.423H483.104C483.085 216.423 483.067 216.429 483.048 216.43C482.719 216.13 481.086 214.518 480.944 211.837ZM482.318 218.141C482.318 217.605 482.671 217.17 483.104 217.17H490.252C490.686 217.17 491.038 217.605 491.038 218.141C491.038 218.676 490.686 219.112 490.252 219.112H483.104C482.671 219.112 482.318 218.676 482.318 218.141ZM479.488 236.903C477.531 234.283 476.719 231.606 477.074 228.947C477.754 223.84 482.534 220.293 483.145 219.859H490.211C490.822 220.293 495.602 223.84 496.283 228.947C496.637 231.606 495.825 234.283 493.868 236.903C492.978 238.095 492.09 239.081 490.23 239.081H483.127C481.266 239.081 480.378 238.095 479.488 236.903Z" stroke="#EF6C00" stroke-width="1.25" />
	<path d="M472.272 320.48H442.945L413.617 291.153L413.875 239.445H442.945V291.153L472.272 320.48ZM472.272 320.48H480.247L492.595 315.335L499.026 320.737H507.773L529.125 291.925V239.187M445.774 316.879L419.02 291.153V244.332H437.542V291.153L463.011 316.879H445.774Z" stroke="#EF6C00" stroke-width="2" />
	<path d="M529.897 239.702H505.201L452.978 300.929L465.069 313.277L520.121 248.963" stroke="#EF6C00" stroke-width="2" />
	<path d="M564.604 338.568C565.06 339.077 565.714 339.498 566.332 339.825C565.723 340.156 565.08 340.583 564.608 341.102C564.153 341.603 563.775 342.335 563.482 343.026C563.18 342.335 562.797 341.606 562.351 341.107C561.904 340.609 561.249 340.181 560.63 339.843C561.258 339.512 561.925 339.084 562.387 338.568C562.835 338.068 563.207 337.357 563.498 336.681C563.786 337.356 564.155 338.067 564.604 338.568Z" stroke="#EF6C00" stroke-width="2" />
	<path d="M533.219 359.663C533.674 360.172 534.329 360.593 534.947 360.92C534.338 361.251 533.695 361.678 533.223 362.197C532.768 362.698 532.39 363.43 532.097 364.121C531.795 363.43 531.412 362.701 530.966 362.202C530.519 361.704 529.864 361.276 529.245 360.938C529.873 360.607 530.54 360.179 531.002 359.663C531.45 359.163 531.822 358.452 532.113 357.776C532.4 358.451 532.77 359.162 533.219 359.663Z" stroke="#EF6C00" stroke-width="2" />
	<path d="M554.217 361.694C554.485 361.994 554.828 362.247 555.166 362.454C554.832 362.665 554.495 362.92 554.221 363.221C553.953 363.517 553.726 363.898 553.54 364.277C553.35 363.899 553.123 363.519 552.861 363.227C552.598 362.933 552.257 362.68 551.919 362.468C552.265 362.256 552.615 361.998 552.888 361.694C553.149 361.403 553.37 361.034 553.553 360.668C553.735 361.034 553.955 361.403 554.217 361.694Z" stroke="#EF6C00" stroke-width="2" />
	<path d="M486.4 359.069H478.682L476.624 357.268" stroke="#EF6C00" stroke-width="2" />
	<path d="M499.263 359.069H491.03" stroke="#EF6C00" stroke-width="2" />
	<path d="M486.4 342.347H491.802L488.972 348.521" stroke="#EF6C00" stroke-width="2" />
	<path d="M492.574 334.372H484.342" stroke="#EF6C00" stroke-width="2" />
	<path d="M503.379 342.604L497.462 338.745C497.462 338.745 497.462 334.887 497.462 333.343C497.462 331.799 495.661 331.028 489.744 326.14" stroke="#EF6C00" stroke-width="2" />
	<path d="M470.193 345.691L474.823 342.09M474.823 342.09V333.343C474.823 329.741 475.558 327.443 483.056 324.082C490.516 320.737 495.147 318.679 496.176 318.165M474.823 342.09L479.454 338.745V333.086C479.454 331.799 479.763 330.41 485.114 327.941C490.464 325.471 493.088 324.253 494.375 323.567C495.661 322.881 499.263 320.995 499.263 320.995" stroke="#EF6C00" stroke-width="2" />
	<path d="M503.121 330.77L494.375 323.825" stroke="#EF6C00" stroke-width="2" />
	<path d="M470.45 333.858C470.45 326.449 473.28 323.825 480.483 320.48L492.574 315.335L503.379 324.339V352.637V364.214H479.197L470.45 355.467V352.637V348.521C470.45 346.72 470.45 341.266 470.45 333.858ZM470.45 333.858V325.883C470.536 324.168 469.678 320.48 465.562 320.48C462.326 320.48 457.977 320.48 455.015 320.48M473.794 364.214L465.562 355.467V325.883C465.562 322.538 463.556 320.48 457.587 320.48C456.546 320.48 455.699 320.48 455.015 320.48M452.957 320.48C455.443 320.48 460.417 320.943 460.417 325.883C460.417 330.822 460.417 347.921 460.417 355.467L468.649 364.214M452.957 320.48C453.506 320.48 454.209 320.48 455.015 320.48M452.957 320.48C452.178 320.48 451.773 320.48 455.015 320.48M462.99 364.214L455.015 355.467V325.883C454.929 324.082 454.5 320.48 447.297 320.48C446.654 320.48 448.926 320.48 455.015 320.48" stroke="#EF6C00" stroke-width="2" />
	<path d="M508.267 364.471L508.267 326.14C508.267 323.053 514.183 320.737 516.242 320.737C518.3 320.737 508.267 320.737 508.267 320.737C506.209 320.737 503.379 322.847 503.379 326.14" stroke="#EF6C00" stroke-width="2" />
	<path d="M508.267 370.131L515.47 364.471H450.127L456.301 370.131M508.267 370.131H456.301M508.267 370.131V378.106L467.106 406.146C466.162 405.718 461.96 403.78 452.699 399.458C443.438 395.136 442.495 386.852 443.181 383.251L456.301 390.197L464.276 378.106L456.301 370.131" stroke="#EF6C00" stroke-width="2" />
	<circle cx="494.889" cy="354.695" r="1.80079" transform="rotate(-180 494.889 354.695)" fill="#EF6C00" />
	<path d="M498.748 352.894C498.748 354.884 497.02 356.496 494.889 356.496C492.758 356.496 491.03 354.884 491.03 352.894" stroke="#EF6C00" stroke-width="2" />
	<path d="M485.885 352.894C485.885 354.884 484.158 356.496 482.027 356.496C479.895 356.496 478.168 354.884 478.168 352.894" stroke="#EF6C00" stroke-width="2" />
	<circle cx="482.026" cy="354.695" r="1.80079" transform="rotate(-180 482.026 354.695)" fill="#EF6C00" />
	<path d="M548.42 239.445V317.458V332.057L545.59 332.057L542.76 332.057V239.445H548.42Z" stroke="#EF6C00" stroke-width="2" />
	<path d="M556.137 348.007L545.59 358.811M556.137 348.007L551.249 332.314M556.137 348.007L549.963 343.376M545.59 346.978L549.963 343.376M545.59 346.978L541.216 343.376M545.59 346.978V358.811M549.963 343.376L547.39 336.173M547.39 336.173H545.59M547.39 336.173L551.249 332.314M543.789 336.173L541.216 343.376M543.789 336.173H545.59M543.789 336.173L540.187 332.314M541.216 343.376L535.042 348.007M545.59 358.811L535.042 348.007M535.042 348.007L540.187 332.314M540.187 332.314H545.59M545.59 332.314H551.249M545.59 332.314V336.173" stroke="#EF6C00" stroke-width="2" />
	<path d="M542.503 319.966L534.27 323.31L532.984 331.542C533.327 330.77 534.425 328.918 536.071 327.683C537.718 326.449 541.045 325.111 542.503 324.596" stroke="#EF6C00" stroke-width="2" />
	<path d="M548.677 319.966L556.909 323.31L558.195 331.542C557.852 330.77 556.755 328.918 555.108 327.683C553.462 326.449 550.135 325.111 548.677 324.596" stroke="#EF6C00" stroke-width="2" />
	<path d="M542.76 324.339L545.59 321.766L548.42 324.339" stroke="#EF6C00" stroke-width="2" />
	<path d="M542.76 319.708L545.59 317.136L548.42 319.708" stroke="#EF6C00" stroke-width="2" />
	<path d="M542.76 324.339L545.59 321.766L548.42 324.339" stroke="#EF6C00" stroke-width="2" />
	<path d="M542.76 319.708L545.59 317.136L548.42 319.708" stroke="#EF6C00" stroke-width="2" />
	<path d="M542.76 328.97L545.59 326.397L548.42 328.97" stroke="#EF6C00" stroke-width="2" />
	<rect x="555.623" y="288.838" width="22.124" height="19.5515" transform="rotate(-180 555.623 288.838)" fill="white" />
	<path d="M547.39 280.606H553.944C556.137 280.606 556.137 276.489 553.944 276.489M533.756 286.265L537.1 289.352H551.507C551.507 287.894 551.027 284.979 549.11 284.979H542.161C542.161 281.635 540.177 280.606 538.644 280.606M533.756 286.265V272.373M533.756 286.265C533.756 286.865 532.47 287.809 531.441 287.809C530.412 287.809 529.125 286.78 529.125 286.265V272.373C529.125 271.859 530.412 270.83 531.441 270.83C532.47 270.83 533.756 271.859 533.756 272.373M548.419 284.979H554.079C556.137 284.979 556.137 280.606 554.079 280.606M533.756 272.373L537.132 268.772H555.56C555.56 270.058 555.617 272.373 553.576 272.373H547.39M547.39 276.489H554.012C556.35 276.489 555.96 272.373 554.012 272.373" stroke="#EF6C00" stroke-width="2" />
	<path d="M468.156 301.701V295.526" stroke="#EF6C00" stroke-width="2" />
	<path d="M471.243 298.613H465.069" stroke="#EF6C00" stroke-width="2" />
	<path d="M484.62 282.149V275.975" stroke="#EF6C00" stroke-width="2" />
	<path d="M487.707 279.062H481.533" stroke="#EF6C00" stroke-width="2" />
	<path d="M502.628 262.083V255.909" stroke="#EF6C00" stroke-width="2" />
	<path d="M505.715 258.996H499.541" stroke="#EF6C00" stroke-width="2" />
	<circle cx="476.645" cy="289.095" r="2.34433" transform="rotate(-180 476.645 289.095)" stroke="#EF6C00" stroke-width="2" />
	<circle cx="493.624" cy="268" r="2.34433" transform="rotate(-180 493.624 268)" stroke="#EF6C00" stroke-width="2" />
	<circle cx="511.632" cy="247.934" r="2.34433" transform="rotate(-180 511.632 247.934)" stroke="#EF6C00" stroke-width="2" />
	<path d="M528.897 283.722H524.98V274.917H528.897V283.722Z" stroke="#EF6C00" stroke-width="2" />
	<path d="M524.752 239.959V291.668L503.657 320.737" stroke="#EF6C00" stroke-width="2" />
	<path d="M520.121 239.959V291.668L499.026 320.737" stroke="#EF6C00" stroke-width="2" />
	<circle cx="491.823" cy="311.991" r="3.1161" transform="rotate(-180 491.823 311.991)" stroke="#EF6C00" stroke-width="2" />
	<path d="M495.168 312.505H505.201" stroke="#EF6C00" stroke-width="2" />
	<path d="M488.5 312.5L471.243 319.451" stroke="#EF6C00" stroke-width="2" />
	<path d="M488.993 312.505H465.84" stroke="#EF6C00" stroke-width="2" />
	<path d="M495.425 313.02L501.599 316.621" stroke="#EF6C00" stroke-width="2" />
	<path d="M455.036 303.244L509.831 239.445" stroke="#EF6C00" stroke-width="2" />
	<path d="M497.226 249.22H465.84M507.259 239.702L442.945 239.445V249.22H445.774" stroke="#EF6C00" stroke-width="2" />
	<path d="M508.03 263.502C508.03 274.242 512.425 285.227 520.121 291.551" stroke="#EF6C00" stroke-width="2" />
	<path d="M504.172 267.362C504.172 278.102 509.852 288.83 517.549 295.154" stroke="#EF6C00" stroke-width="2" />
	<path d="M442.945 290.007C448.916 285.101 452.899 277.389 454.385 269.163" stroke="#EF6C00" stroke-width="2" />
	<path d="M445.517 293.61C452.413 287.943 457.691 278.742 458.714 269.163" stroke="#EF6C00" stroke-width="2" />
	<path d="M423.62 255.706C423.68 255.892 423.842 256.028 424.036 256.057L426.721 256.445L427.921 258.864C428.095 259.215 428.669 259.215 428.843 258.864L430.043 256.445L432.728 256.057C432.922 256.028 433.083 255.892 433.144 255.706C433.204 255.519 433.153 255.314 433.013 255.178L431.071 253.295L431.529 250.637C431.563 250.444 431.484 250.249 431.325 250.134C431.167 250.018 430.957 250.003 430.784 250.094L428.382 251.35L425.98 250.094C425.905 250.054 425.823 250.035 425.742 250.035C425.635 250.035 425.528 250.068 425.439 250.134C425.28 250.249 425.201 250.444 425.235 250.637L425.693 253.295L423.751 255.178C423.611 255.314 423.56 255.519 423.62 255.706ZM426.604 253.845C426.726 253.726 426.782 253.556 426.753 253.388L426.425 251.488L428.144 252.387C428.218 252.426 428.3 252.446 428.382 252.446C428.464 252.446 428.546 252.426 428.62 252.387L430.339 251.488L430.011 253.388C429.982 253.556 430.038 253.726 430.16 253.845L431.544 255.187L429.629 255.465C429.461 255.489 429.317 255.594 429.241 255.745L428.382 257.478L427.523 255.745C427.447 255.594 427.303 255.489 427.135 255.465L425.22 255.187L426.604 253.845Z" fill="#EF6C00" stroke="#EF6C00" stroke-width="0.75" />
	<path d="M451.404 250.559C451.464 250.746 451.625 250.882 451.82 250.91L454.505 251.298L455.705 253.718C455.878 254.068 456.453 254.068 456.627 253.718L457.827 251.298L460.512 250.91C460.706 250.882 460.867 250.746 460.927 250.559C460.988 250.372 460.937 250.167 460.796 250.031L458.855 248.148L459.313 245.491C459.346 245.298 459.267 245.103 459.109 244.987C458.951 244.872 458.74 244.857 458.568 244.947L456.166 246.204L453.764 244.947C453.689 244.908 453.607 244.888 453.525 244.888C453.418 244.888 453.312 244.922 453.222 244.987C453.064 245.103 452.985 245.298 453.018 245.491L453.476 248.148L451.535 250.031C451.394 250.167 451.343 250.372 451.404 250.559ZM454.388 248.698C454.51 248.58 454.565 248.409 454.536 248.241L454.209 246.342L455.927 247.241C456.002 247.28 456.084 247.299 456.166 247.299C456.248 247.299 456.329 247.28 456.404 247.241L458.122 246.342L457.795 248.241C457.766 248.409 457.822 248.58 457.944 248.698L459.328 250.041L457.412 250.318C457.245 250.342 457.1 250.447 457.025 250.599L456.166 252.331L455.306 250.599C455.231 250.447 455.086 250.342 454.919 250.318L453.003 250.041L454.388 248.698Z" fill="#EF6C00" stroke="#EF6C00" stroke-width="0.75" />
	<path d="M423.62 271.66C423.68 271.847 423.842 271.983 424.036 272.011L426.721 272.399L427.921 274.819C428.095 275.169 428.669 275.169 428.843 274.819L430.043 272.399L432.728 272.011C432.922 271.983 433.083 271.847 433.144 271.66C433.204 271.474 433.153 271.269 433.013 271.132L431.071 269.25L431.529 266.592C431.563 266.399 431.484 266.204 431.325 266.088C431.167 265.973 430.957 265.958 430.784 266.048L428.382 267.305L425.98 266.048C425.905 266.009 425.823 265.99 425.742 265.99C425.635 265.99 425.528 266.023 425.439 266.088C425.28 266.204 425.201 266.399 425.235 266.592L425.693 269.25L423.751 271.132C423.611 271.269 423.56 271.474 423.62 271.66ZM426.604 269.799C426.726 269.681 426.782 269.51 426.753 269.343L426.425 267.443L428.144 268.342C428.218 268.381 428.3 268.4 428.382 268.4C428.464 268.4 428.546 268.381 428.62 268.342L430.339 267.443L430.011 269.343C429.982 269.51 430.038 269.681 430.16 269.799L431.544 271.142L429.629 271.419C429.461 271.443 429.317 271.549 429.241 271.7L428.382 273.432L427.523 271.7C427.447 271.549 427.303 271.443 427.135 271.419L425.22 271.142L426.604 269.799Z" fill="#EF6C00" stroke="#EF6C00" stroke-width="0.75" />
	<path d="M423.62 287.615C423.68 287.802 423.842 287.938 424.036 287.966L426.721 288.354L427.921 290.774C428.095 291.124 428.669 291.124 428.843 290.774L430.043 288.354L432.728 287.966C432.922 287.938 433.083 287.802 433.144 287.615C433.204 287.428 433.153 287.223 433.013 287.087L431.071 285.204L431.529 282.546C431.563 282.353 431.484 282.158 431.325 282.043C431.167 281.928 430.957 281.913 430.784 282.003L428.382 283.26L425.98 282.003C425.905 281.964 425.823 281.944 425.742 281.944C425.635 281.944 425.528 281.978 425.439 282.043C425.28 282.158 425.201 282.353 425.235 282.546L425.693 285.204L423.751 287.087C423.611 287.223 423.56 287.428 423.62 287.615ZM426.604 285.754C426.726 285.636 426.782 285.465 426.753 285.297L426.425 283.398L428.144 284.297C428.218 284.335 428.3 284.355 428.382 284.355C428.464 284.355 428.546 284.335 428.62 284.297L430.339 283.398L430.011 285.297C429.982 285.465 430.038 285.636 430.16 285.754L431.544 287.097L429.629 287.374C429.461 287.398 429.317 287.503 429.241 287.655L428.382 289.387L427.523 287.655C427.447 287.503 427.303 287.398 427.135 287.374L425.22 287.097L426.604 285.754Z" fill="#EF6C00" stroke="#EF6C00" stroke-width="0.75" />
	<path d="M448.688 241.987C446.598 244.786 445.734 247.675 446.122 250.574C446.443 252.98 447.662 255.416 449.647 257.619C450.569 258.641 451.446 259.387 451.994 259.816C451.612 260.123 451.358 260.652 451.358 261.256C451.358 261.861 451.614 262.392 451.998 262.698C451.296 263.452 449.974 265.232 449.974 267.932C449.974 268.138 450.109 268.305 450.276 268.305H452.845C452.841 268.57 452.846 268.835 452.876 269.099C452.897 269.283 453.025 269.42 453.175 269.42H459.468C459.619 269.42 459.746 269.283 459.767 269.099C459.797 268.835 459.803 268.57 459.799 268.305H462.368C462.535 268.305 462.67 268.138 462.67 267.932C462.67 265.232 461.347 263.452 460.646 262.698C461.03 262.392 461.286 261.861 461.286 261.256C461.286 260.652 461.032 260.123 460.65 259.816C461.198 259.387 462.075 258.641 462.996 257.619C464.982 255.416 466.201 252.98 466.522 250.574C466.909 247.675 466.046 244.786 463.956 241.987C463.004 240.713 461.976 239.57 459.873 239.57H452.77C450.668 239.57 449.64 240.713 448.688 241.987ZM452.896 267.559H450.588C450.73 264.888 452.363 263.268 452.693 262.967C452.711 262.967 452.729 262.973 452.748 262.973H454.603C454.055 263.874 453.126 265.643 452.896 267.559ZM459.195 268.674H453.449C453.327 266.187 454.981 263.56 455.374 262.973H457.27C457.663 263.56 459.316 266.187 459.195 268.674ZM462.056 267.559H459.748C459.517 265.643 458.589 263.874 458.04 262.973H459.896C459.915 262.973 459.933 262.967 459.952 262.966C460.281 263.266 461.914 264.879 462.056 267.559ZM460.682 261.256C460.682 261.792 460.329 262.227 459.896 262.227H452.748C452.314 262.227 451.962 261.792 451.962 261.256C451.962 260.72 452.314 260.284 452.748 260.284H459.896C460.329 260.284 460.682 260.72 460.682 261.256ZM463.512 242.494C465.468 245.114 466.281 247.791 465.926 250.449C465.246 255.557 460.466 259.104 459.855 259.538H452.789C452.178 259.104 447.398 255.557 446.717 250.449C446.363 247.791 447.175 245.114 449.132 242.494C450.022 241.302 450.91 240.316 452.77 240.316H459.873C461.734 240.316 462.622 241.302 463.512 242.494Z" stroke="#EF6C00" stroke-width="1.25" />
	<defs>
		<filter id="filter0_f" x="359.494" y="485.267" width="93.5613" height="65.1744" filterUnits="userSpaceOnUse" color-interpolation-filters="sRGB">
			<feFlood flood-opacity="0" result="BackgroundImageFix" />
			<feBlend mode="normal" in="SourceGraphic" in2="BackgroundImageFix" result="shape" />
			<feGaussianBlur stdDeviation="3" result="effect1_foregroundBlur" />
		</filter>
	</defs>
</svg>	