<svg width="297" height="511" viewBox="0 0 297 511" fill="none" xmlns="http://www.w3.org/2000/svg">
	<rect x="11.09" y="105.133" width="243.52" height="405.867" rx="5.922" fill="#ECE6FE"></rect>
	<path d="M11.09 111.055C11.09 107.785 13.7414 105.133 17.012 105.133L248.334 105.133C251.605 105.133 254.256 107.785 254.256 111.055V130.776H11.09L11.09 111.055Z" fill="#CCC3FC"></path>
	<g filter="url(#filter0_f)">
		<path d="M173.665 478.051C173.665 476.689 172.753 476.108 171.367 475.812L170.905 475.718V472.685C172.007 472.757 172.552 473.349 172.599 474.083H173.428C173.428 472.863 172.481 472.01 170.905 471.939V470.968H170.467V471.927C168.833 471.999 167.968 472.875 167.968 474.119C167.968 475.279 168.714 475.99 170.124 476.286L170.467 476.357V479.685C169.188 479.591 168.631 478.856 168.572 477.956H167.743C167.743 479.318 168.667 480.337 170.467 480.431V481.391H170.905V480.443C172.635 480.396 173.665 479.519 173.665 478.051ZM170.349 475.599C169.271 475.374 168.833 474.841 168.833 474.119C168.833 473.384 169.306 472.745 170.467 472.674V475.623L170.349 475.599ZM170.905 479.697V476.452L171.154 476.499C172.102 476.701 172.8 477.091 172.8 478.074C172.8 478.998 172.173 479.65 170.905 479.697ZM178.757 480.325H179.598V478.086H180.545V477.399H179.598V472.034H178.757L174.872 477.399V478.086H178.757V480.325ZM175.654 477.399L178.757 473.112V477.399H175.654ZM186.641 472.034V475.208C186.191 474.438 185.326 474.048 184.414 474.048C182.981 474.048 181.631 475.031 181.631 477.245C181.631 479.448 182.981 480.443 184.414 480.443C185.326 480.443 186.191 480.052 186.641 479.283V480.325H187.482V472.034H186.641ZM184.556 479.733C183.467 479.733 182.436 478.939 182.436 477.245C182.436 475.552 183.467 474.758 184.556 474.758C185.634 474.758 186.688 475.552 186.688 477.245C186.688 478.939 185.634 479.733 184.556 479.733ZM191.271 480.443C192.515 480.443 193.735 479.97 193.735 478.619C193.735 477.577 193.024 477.21 192.005 476.961L190.857 476.701C190.075 476.511 189.767 476.179 189.767 475.706C189.767 475.066 190.324 474.711 191.236 474.711C192.076 474.711 192.681 474.995 192.834 475.836H193.545C193.462 474.616 192.527 474.048 191.224 474.048C189.873 474.048 188.961 474.652 188.961 475.729C188.961 476.558 189.494 477.08 190.572 477.34L191.733 477.613C192.432 477.79 192.882 477.992 192.882 478.631C192.882 479.448 192.136 479.78 191.283 479.78C190.466 479.78 189.637 479.484 189.518 478.619H188.748C188.819 479.875 189.909 480.443 191.271 480.443ZM197.403 474.048C195.887 474.048 194.987 474.604 194.987 475.836V476.025H195.792V475.895C195.792 475.078 196.313 474.699 197.367 474.699C198.398 474.699 198.966 475.066 198.966 476.144V476.476C198.966 476.653 198.682 476.783 198.031 476.878L196.681 477.056C195.318 477.245 194.608 477.755 194.608 478.785C194.608 479.91 195.437 480.443 196.621 480.443C198.137 480.443 198.824 479.579 198.978 479.259H199.014V480.325H199.807V476.144C199.807 474.663 199.014 474.048 197.403 474.048ZM198.966 478.169C198.966 478.643 198.291 479.768 196.775 479.768C196.029 479.768 195.449 479.484 195.449 478.738C195.449 478.193 195.757 477.814 196.858 477.66L198.102 477.482C198.658 477.411 198.943 477.293 198.966 477.151V478.169ZM204.063 480.443C205.851 480.443 207.059 479.437 207.059 477.968C207.059 476.653 206.112 475.978 205.2 475.812C206.1 475.552 206.597 474.853 206.597 473.988C206.597 472.816 205.709 471.927 204.098 471.927C202.499 471.927 201.457 472.792 201.457 474.557H202.262C202.262 473.183 203.056 472.662 204.074 472.662C205.129 472.662 205.768 473.207 205.768 474.083C205.768 474.794 205.354 475.54 203.92 475.54H203.624V476.203H203.968C205.377 476.203 206.206 476.843 206.206 477.92C206.206 479.058 205.271 479.709 204.098 479.709C202.795 479.709 202.002 478.939 201.99 477.695H201.184C201.196 479.318 202.179 480.443 204.063 480.443ZM208.223 480.325H213.612V479.602H209.17V479.519C209.17 478.513 209.964 477.838 211.267 477.044C212.51 476.298 213.553 475.635 213.553 474.237C213.553 472.899 212.582 471.927 210.959 471.927C209.289 471.927 208.318 472.97 208.318 474.45V474.663H209.147V474.498C209.147 473.278 209.917 472.65 210.959 472.65C212.001 472.65 212.712 473.266 212.712 474.273C212.712 475.362 211.812 475.871 210.568 476.641C208.874 477.672 208.223 478.548 208.223 480.005V480.325ZM218.717 480.325H219.558V478.086H220.506V477.399H219.558V472.034H218.717L214.832 477.399V478.086H218.717V480.325ZM215.614 477.399L218.717 473.112V477.399H215.614ZM224.54 471.939C222.918 471.939 221.722 473.041 221.722 474.817C221.722 476.558 222.859 477.589 224.387 477.589C225.393 477.589 226.27 477.151 226.696 476.274C226.684 478.063 226.246 479.768 224.481 479.768C223.403 479.768 222.811 479.129 222.74 478.382H221.994C222.018 479.401 222.811 480.455 224.469 480.455C226.85 480.455 227.49 478.264 227.49 476.085C227.49 473.254 226.353 471.939 224.54 471.939ZM224.529 476.914C223.297 476.914 222.527 476.097 222.527 474.829C222.527 473.55 223.309 472.638 224.54 472.638C225.76 472.638 226.554 473.562 226.554 474.829C226.554 476.097 225.76 476.914 224.529 476.914ZM231.992 480.443C233.804 480.443 235.166 478.998 235.166 476.179C235.166 473.384 233.804 471.927 231.992 471.927C230.179 471.927 228.806 473.384 228.806 476.179C228.806 478.998 230.179 480.443 231.992 480.443ZM231.992 479.721C230.523 479.721 229.611 478.382 229.611 476.179C229.611 473.988 230.523 472.65 231.992 472.65C233.46 472.65 234.36 473.988 234.36 476.179C234.36 478.382 233.46 479.721 231.992 479.721Z" fill="#5352FC"></path>
	</g>
	<rect x="0.74025" y="96.159" width="242.039" height="404.386" rx="5.18175" stroke="#7C71FC" stroke-width="1.4805"></rect>
	<path d="M29.6591 151.998H235.687" stroke="#7C71FC" stroke-width="1.4805"></path>
	<path d="M29.6591 456.177H235.687" stroke="#7C71FC" stroke-width="1.4805"></path>
	<path d="M30.3224 480.325H33.1531C35.7587 480.325 37.0734 478.833 37.0734 476.18C37.0734 473.527 35.7587 472.034 33.1531 472.034H30.3224V480.325ZM31.5541 479.247V473.112H33.0346C35.0007 473.112 35.818 474.083 35.818 476.18C35.818 478.264 35.0007 479.247 33.0346 479.247H31.5541ZM43.8958 477.151C43.8958 474.995 42.6758 474.048 41.0887 474.048C39.5016 474.048 38.1514 475.007 38.1514 477.269C38.1514 479.496 39.4779 480.467 41.1479 480.467C42.4034 480.467 43.4457 479.899 43.8128 478.537H42.7469C42.4863 479.259 41.9415 479.532 41.1835 479.532C40.0465 479.532 39.3832 478.927 39.3003 477.601H43.8602C43.8839 477.471 43.8958 477.364 43.8958 477.151ZM39.3003 476.748C39.4187 475.564 40.082 474.983 41.0769 474.983C42.1428 474.983 42.735 475.659 42.7587 476.748H39.3003ZM48.4187 474.048C47.5067 474.048 46.725 474.462 46.3578 475.137V474.166H45.1616V482.575H46.3578V479.354C46.725 480.029 47.5067 480.444 48.4187 480.444C49.7926 480.444 51.1665 479.472 51.1665 477.246C51.1665 475.007 49.7926 474.048 48.4187 474.048ZM48.17 479.437C47.2224 479.437 46.2986 478.75 46.2986 477.246C46.2986 475.741 47.2224 475.054 48.17 475.054C49.1293 475.054 50.0295 475.741 50.0295 477.246C50.0295 478.75 49.1293 479.437 48.17 479.437ZM55.1891 480.444C56.7288 480.444 58.1975 479.449 58.1975 477.246C58.1975 475.043 56.7288 474.048 55.1891 474.048C53.6612 474.048 52.1926 475.043 52.1926 477.246C52.1926 479.449 53.6612 480.444 55.1891 480.444ZM55.1891 479.437C54.1942 479.437 53.3296 478.762 53.3296 477.246C53.3296 475.73 54.1942 475.054 55.1891 475.054C56.184 475.054 57.0604 475.73 57.0604 477.246C57.0604 478.762 56.184 479.437 55.1891 479.437ZM61.6836 480.444C63.0338 480.444 64.2656 479.922 64.2656 478.56C64.2656 477.506 63.5194 477.104 62.5245 476.867L61.3638 476.606C60.7361 476.464 60.4518 476.192 60.4518 475.777C60.4518 475.256 60.9256 474.96 61.6954 474.96C62.4297 474.96 62.939 475.22 63.0575 475.978H64.0642C64.005 474.711 63.1049 474.048 61.6717 474.048C60.2505 474.048 59.3029 474.675 59.3029 475.801C59.3029 476.63 59.8122 477.222 60.9729 477.494L62.1218 477.755C62.7022 477.897 63.0456 478.087 63.0456 478.584C63.0456 479.247 62.4534 479.532 61.6954 479.532C60.9374 479.532 60.286 479.247 60.1912 478.489H59.1134C59.149 479.816 60.2031 480.444 61.6836 480.444ZM66.0695 473.1C66.4485 473.1 66.7801 472.792 66.7801 472.401C66.7801 472.011 66.4485 471.703 66.0695 471.703C65.6905 471.703 65.3588 472.011 65.3588 472.401C65.3588 472.792 65.6905 473.1 66.0695 473.1ZM65.4773 480.325H66.6735V474.166H65.4773V480.325ZM70.865 479.437C70.2491 479.437 70.0241 479.164 70.0241 478.56V475.102H71.244V474.166H70.0241V472.615H68.8278V474.166H67.8211V475.102H68.8278V478.762C68.8278 479.97 69.5503 480.408 70.557 480.408C70.8176 480.408 71.0663 480.408 71.3269 480.372V479.437H70.865Z" fill="#5352FC"></path>
	<rect x="29.6591" y="173.22" width="134.405" height="17.6848" rx="2.961" fill="#CCC3FC"></rect>
	<rect x="29.6591" y="211.242" width="105.225" height="17.6848" rx="2.961" fill="#CCC3FC"></rect>
	<path d="M41.1542 223.622C45.1122 222.295 46.2867 217.432 52.3686 217.432C58.9653 217.432 59.7501 223.18 64.9024 223.18C71.4991 223.18 73.4781 217.432 79.4151 217.432C86.0119 217.432 87.3312 223.18 92.6086 223.18C97.8859 223.18 102.504 217.432 108.441 217.432C114.378 217.432 115.697 223.18 124.273 223.18" stroke="#5352FC" stroke-width="1.4805" stroke-linecap="round"></path>
	<path d="M242.168 24.441C241.399 24.1482 241.4 22.796 242.168 22.5005C245.447 21.2385 250.847 18.8203 253.699 15.6814C256.333 12.7825 258.513 6.55636 259.635 2.88117C259.892 2.03756 261.057 2.02279 261.33 2.86016C262.53 6.5326 264.831 12.777 267.433 15.6814C270.036 18.5863 275.632 21.1555 278.922 22.4937C279.672 22.7988 279.659 24.099 278.904 24.3871C275.601 25.6468 269.984 28.1039 267.294 31.1067C264.647 34.0608 262.473 40.1764 261.329 43.8839C261.065 44.7409 259.857 44.7356 259.598 43.8766C258.48 40.1698 256.348 34.063 253.699 31.1067C251.043 28.1427 245.512 25.715 242.168 24.441Z" fill="#ECE6FE"></path>
	<path d="M294.063 84.1039C293.044 84.5256 291.846 85.0737 290.719 85.7189C289.601 86.3586 288.509 87.1191 287.737 87.9805C286.986 88.8193 286.321 89.9963 285.758 91.2064C285.191 92.4266 284.705 93.7292 284.326 94.8553C284.314 94.8919 284.253 94.9841 284.075 94.9833C283.897 94.9826 283.836 94.8898 283.824 94.8526C283.452 93.7271 282.975 92.4258 282.414 91.2065C281.857 89.9972 281.197 88.8204 280.444 87.9805C279.689 87.1375 278.625 86.3926 277.531 85.7633C276.428 85.1286 275.25 84.5866 274.233 84.1639C274.201 84.1507 274.116 84.0824 274.116 83.879C274.116 83.6755 274.201 83.6046 274.234 83.5905C276.198 82.7603 278.87 81.4194 280.441 79.6908C281.2 78.8548 281.871 77.6543 282.436 76.4239C283.006 75.1818 283.492 73.8545 283.866 72.7233C283.88 72.6819 283.937 72.5991 284.095 72.5972C284.252 72.5953 284.309 72.6763 284.323 72.7159C284.719 73.847 285.229 75.1761 285.815 76.4199C286.395 77.652 287.074 78.8524 287.822 79.687C288.57 80.5218 289.646 81.2799 290.75 81.9279C291.865 82.582 293.056 83.151 294.07 83.5939C294.105 83.6094 294.178 83.6732 294.176 83.8488C294.175 84.0245 294.1 84.0886 294.063 84.1039Z" stroke="#7C71FC" stroke-width="1.4805"></path>
	<path d="M220.038 61.1562C219.019 61.5778 217.821 62.1259 216.694 62.7711C215.576 63.4109 214.484 64.1713 213.712 65.0328C212.961 65.8715 212.296 67.0485 211.733 68.2587C211.166 69.4789 210.68 70.7815 210.301 71.9076C210.289 71.9442 210.228 72.0363 210.05 72.0356C209.872 72.0349 209.811 71.9421 209.799 71.9049C209.427 70.7793 208.95 69.478 208.389 68.2587C207.832 67.0495 207.172 65.8727 206.419 65.0328C205.664 64.1897 204.6 63.4448 203.506 62.8155C202.403 62.1809 201.225 61.6388 200.208 61.2162C200.176 61.2029 200.091 61.1347 200.091 60.9313C200.091 60.7278 200.176 60.6568 200.209 60.6427C202.173 59.8125 204.845 58.4717 206.416 56.7431C207.175 55.9071 207.846 54.7065 208.411 53.4762C208.981 52.2341 209.467 50.9067 209.842 49.7755C209.855 49.7342 209.912 49.6514 210.07 49.6494C210.227 49.6475 210.284 49.7285 210.298 49.7682C210.694 50.8993 211.204 52.2284 211.79 53.4721C212.371 54.7042 213.05 55.9047 213.797 56.7393C214.545 57.5741 215.621 58.3322 216.725 58.9801C217.84 59.6342 219.031 60.2033 220.045 60.6461C220.08 60.6616 220.153 60.7255 220.151 60.9011C220.15 61.0768 220.075 61.1409 220.038 61.1562Z" stroke="#7C71FC" stroke-width="1.4805"></path>
	<path d="M272.016 23.6493C270.35 24.2845 268.093 25.2247 265.906 26.3896C263.734 27.5468 261.569 28.9577 260.138 30.5553C258.729 32.1275 257.483 34.4914 256.456 36.8749C255.423 39.2738 254.583 41.7604 254.006 43.6299C253.996 43.662 253.981 43.683 253.954 43.702C253.921 43.7248 253.868 43.7443 253.802 43.7441C253.737 43.7438 253.683 43.7238 253.65 43.7006C253.623 43.6813 253.608 43.6601 253.598 43.6278C253.034 41.7583 252.211 39.2734 251.191 36.8758C250.178 34.4935 248.942 32.1298 247.531 30.5553C246.117 28.9773 243.983 27.5835 241.83 26.4365C239.664 25.282 237.417 24.3455 235.731 23.7031C235.703 23.6924 235.684 23.6756 235.667 23.6444C235.646 23.6069 235.628 23.5464 235.628 23.4718C235.628 23.3972 235.646 23.3361 235.667 23.2979C235.685 23.2658 235.704 23.2486 235.733 23.2376C237.388 22.6006 239.587 21.6688 241.738 20.4953C243.879 19.3273 246.022 17.894 247.527 16.2365C248.934 14.6886 250.179 12.306 251.202 9.90755C252.233 7.49191 253.068 4.98568 253.634 3.13268C253.644 3.09941 253.659 3.07884 253.684 3.06095C253.714 3.03939 253.763 3.02069 253.822 3.01995C253.882 3.01921 253.93 3.03669 253.961 3.05732C253.986 3.07437 254.001 3.09428 254.012 3.12715C254.616 4.97754 255.501 7.48526 256.567 9.903C257.625 12.3038 258.892 14.6865 260.277 16.2327C261.663 17.7791 263.798 19.1933 265.949 20.3746C268.116 21.5643 270.363 22.552 272.021 23.2262C272.05 23.2382 272.068 23.2555 272.083 23.2836C272.102 23.3174 272.118 23.3716 272.117 23.4382C272.116 23.5048 272.1 23.5589 272.08 23.5927C272.064 23.6208 272.046 23.638 272.016 23.6493Z" stroke="#7C71FC" stroke-width="1.4805"></path>
	<defs>
		<filter id="filter0_f" x="163.302" y="466.527" width="76.3057" height="19.3057" filterUnits="userSpaceOnUse" color-interpolation-filters="sRGB">
			<feFlood flood-opacity="0" result="BackgroundImageFix"></feFlood>
			<feBlend mode="normal" in="SourceGraphic" in2="BackgroundImageFix" result="shape"></feBlend>
			<feGaussianBlur stdDeviation="2.22075" result="effect1_foregroundBlur"></feGaussianBlur>
		</filter>
	</defs>
</svg>